<svg width="273" height="632" viewBox="0 0 273 632" fill="none" xmlns="http://www.w3.org/2000/svg">
<g filter="url(#filter0_d_48_48)">
<path d="M180.5 414C196.097 468.373 136.5 552 136.5 552C136.5 552 65.8943 468.98 83.4998 414C93.5808 382.518 103.573 345.076 136.5 348C167.356 350.74 171.958 384.224 180.5 414Z" fill="url(#paint0_linear_48_48)" stroke="black"/>
<path d="M176.711 123.682C155.612 62.2374 110.822 68.7315 95.2748 123.682C64.7554 231.552 102.677 327 102.677 327L176.71 327C176.71 327 205.252 206.801 176.711 123.682Z" fill="url(#paint1_linear_48_48)"/>
<path d="M178.1 121.594C167.443 91.6174 150.721 77.166 133.808 78.0361C116.713 78.9159 101.2 95.3936 93.3506 123.138L92.6426 125.68C78.0498 179.019 79.9484 229.144 85.5537 266.093C88.4016 284.865 92.209 300.253 95.3076 310.957C96.8571 316.309 98.23 320.492 99.2178 323.343C99.7116 324.768 100.109 325.86 100.385 326.6C100.522 326.969 100.63 327.251 100.703 327.441C100.74 327.537 100.768 327.61 100.787 327.659C100.797 327.684 100.804 327.703 100.81 327.716C100.812 327.722 100.815 327.728 100.816 327.731C100.817 327.733 100.817 327.735 100.817 327.736L102.678 327L100.818 327.738L101.32 329L178.291 329L178.656 327.462L176.71 327L178.656 327.46C178.656 327.459 178.658 327.457 178.658 327.455C178.659 327.451 178.66 327.445 178.662 327.437C178.666 327.422 178.671 327.399 178.678 327.369C178.692 327.309 178.713 327.22 178.74 327.103C178.794 326.869 178.874 326.522 178.976 326.067C179.18 325.158 179.474 323.818 179.838 322.084C180.566 318.616 181.574 313.576 182.693 307.27C184.931 294.659 187.615 276.977 189.405 256.687C192.98 216.165 193.012 164.996 178.603 123.033L178.1 121.594Z" stroke="#FEFEFE" stroke-opacity="0.6" stroke-width="4"/>
<path d="M179.515 317.738C158.198 299.941 109.92 304.073 93.5529 317.738C70.5694 336.927 83.7761 367.889 83.7761 367.889L190.142 367.889C190.142 367.889 201.302 335.928 179.515 317.738Z" fill="#20143D"/>
<path d="M180.267 315.768C169.023 306.735 151.324 303.427 134.616 303.941C126.078 304.204 117.678 305.467 110.346 307.546C103.042 309.618 96.661 312.538 92.2715 316.203L91.71 316.679C80.0657 326.74 77.6098 339.735 78.0478 350.094C78.2702 355.352 79.2352 359.975 80.1426 363.281C80.597 364.936 81.0391 366.269 81.3701 367.195C81.5357 367.658 81.6741 368.019 81.7725 368.269C81.8216 368.394 81.8608 368.491 81.8887 368.559C81.9026 368.593 81.9138 368.62 81.9219 368.639C81.9258 368.648 81.9292 368.656 81.9316 368.662C81.9329 368.665 81.9337 368.667 81.9346 368.669C81.935 368.67 81.9353 368.672 81.9355 368.672L83.7764 367.889L81.9365 368.674L82.4551 369.889L191.562 369.889L192.03 368.548L190.143 367.889L192.031 368.546L192.032 368.544C192.033 368.542 192.033 368.54 192.034 368.537C192.036 368.531 192.04 368.523 192.043 368.513C192.05 368.494 192.059 368.467 192.07 368.432C192.093 368.363 192.126 368.264 192.167 368.136C192.249 367.88 192.364 367.509 192.501 367.035C192.775 366.086 193.137 364.722 193.501 363.032C194.227 359.656 194.965 354.951 194.999 349.648C195.068 339.062 192.325 325.828 180.797 316.203L180.267 315.768Z" stroke="#FEFEFE" stroke-opacity="0.6" stroke-width="4"/>
<circle cx="22.5" cy="22.5" r="24.5" transform="matrix(-1 -8.74228e-08 -8.74228e-08 1 157 156.889)" fill="#FEFEFE" fill-opacity="0.4" stroke="#FEFEFE" stroke-width="4"/>
</g>
<defs>
<filter id="filter0_d_48_48" x="16.0004" y="15.999" width="241" height="596.814" filterUnits="userSpaceOnUse" color-interpolation-filters="sRGB">
<feFlood flood-opacity="0" result="BackgroundImageFix"/>
<feColorMatrix in="SourceAlpha" type="matrix" values="0 0 0 0 0 0 0 0 0 0 0 0 0 0 0 0 0 0 127 0" result="hardAlpha"/>
<feOffset/>
<feGaussianBlur stdDeviation="30"/>
<feComposite in2="hardAlpha" operator="out"/>
<feColorMatrix type="matrix" values="0 0 0 0 0.996078 0 0 0 0 0.996078 0 0 0 0 0.996078 0 0 0 1 0"/>
<feBlend mode="normal" in2="BackgroundImageFix" result="effect1_dropShadow_48_48"/>
<feBlend mode="normal" in="SourceGraphic" in2="effect1_dropShadow_48_48" result="shape"/>
</filter>
<linearGradient id="paint0_linear_48_48" x1="131.892" y1="347.839" x2="131.892" y2="552" gradientUnits="userSpaceOnUse">
<stop stop-color="#5635A3"/>
<stop offset="1" stop-color="#D9D9D9"/>
</linearGradient>
<linearGradient id="paint1_linear_48_48" x1="136.396" y1="80" x2="136.395" y2="327" gradientUnits="userSpaceOnUse">
<stop stop-color="#5635A3"/>
<stop offset="0.565469" stop-color="#20143D"/>
</linearGradient>
</defs>
</svg>
