<svg width="938" height="806" viewBox="0 0 938 806" fill="none" xmlns="http://www.w3.org/2000/svg">
<rect x="712.5" y="423.5" width="225" height="69" rx="34.5" fill="url(#paint0_linear_60_11)"/>
<rect x="712.5" y="423.5" width="225" height="69" rx="34.5" stroke="#FEFEFE"/>
<path d="M784.77 460.34H788.273C788.203 461.488 787.887 462.508 787.324 463.398C786.77 464.289 785.992 464.984 784.992 465.484C784 465.984 782.805 466.234 781.406 466.234C780.312 466.234 779.332 466.047 778.465 465.672C777.598 465.289 776.855 464.742 776.238 464.031C775.629 463.32 775.164 462.461 774.844 461.453C774.523 460.445 774.363 459.316 774.363 458.066V456.883C774.363 455.633 774.527 454.504 774.855 453.496C775.191 452.48 775.668 451.617 776.285 450.906C776.91 450.195 777.656 449.648 778.523 449.266C779.391 448.883 780.359 448.691 781.43 448.691C782.852 448.691 784.051 448.949 785.027 449.465C786.012 449.98 786.773 450.691 787.312 451.598C787.859 452.504 788.188 453.535 788.297 454.691H784.781C784.742 454.004 784.605 453.422 784.371 452.945C784.137 452.461 783.781 452.098 783.305 451.855C782.836 451.605 782.211 451.48 781.43 451.48C780.844 451.48 780.332 451.59 779.895 451.809C779.457 452.027 779.09 452.359 778.793 452.805C778.496 453.25 778.273 453.812 778.125 454.492C777.984 455.164 777.914 455.953 777.914 456.859V458.066C777.914 458.949 777.98 459.727 778.113 460.398C778.246 461.062 778.449 461.625 778.723 462.086C779.004 462.539 779.363 462.883 779.801 463.117C780.246 463.344 780.781 463.457 781.406 463.457C782.141 463.457 782.746 463.34 783.223 463.105C783.699 462.871 784.062 462.523 784.312 462.062C784.57 461.602 784.723 461.027 784.77 460.34ZM793.746 456.086V466H790.371V453.32H793.547L793.746 456.086ZM797.566 453.238L797.508 456.367C797.344 456.344 797.145 456.324 796.91 456.309C796.684 456.285 796.477 456.273 796.289 456.273C795.812 456.273 795.398 456.336 795.047 456.461C794.703 456.578 794.414 456.754 794.18 456.988C793.953 457.223 793.781 457.508 793.664 457.844C793.555 458.18 793.492 458.562 793.477 458.992L792.797 458.781C792.797 457.961 792.879 457.207 793.043 456.52C793.207 455.824 793.445 455.219 793.758 454.703C794.078 454.188 794.469 453.789 794.93 453.508C795.391 453.227 795.918 453.086 796.512 453.086C796.699 453.086 796.891 453.102 797.086 453.133C797.281 453.156 797.441 453.191 797.566 453.238ZM804.762 466.234C803.777 466.234 802.895 466.078 802.113 465.766C801.332 465.445 800.668 465.004 800.121 464.441C799.582 463.879 799.168 463.227 798.879 462.484C798.59 461.734 798.445 460.938 798.445 460.094V459.625C798.445 458.664 798.582 457.785 798.855 456.988C799.129 456.191 799.52 455.5 800.027 454.914C800.543 454.328 801.168 453.879 801.902 453.566C802.637 453.246 803.465 453.086 804.387 453.086C805.285 453.086 806.082 453.234 806.777 453.531C807.473 453.828 808.055 454.25 808.523 454.797C809 455.344 809.359 456 809.602 456.766C809.844 457.523 809.965 458.367 809.965 459.297V460.703H799.887V458.453H806.648V458.195C806.648 457.727 806.562 457.309 806.391 456.941C806.227 456.566 805.977 456.27 805.641 456.051C805.305 455.832 804.875 455.723 804.352 455.723C803.906 455.723 803.523 455.82 803.203 456.016C802.883 456.211 802.621 456.484 802.418 456.836C802.223 457.188 802.074 457.602 801.973 458.078C801.879 458.547 801.832 459.062 801.832 459.625V460.094C801.832 460.602 801.902 461.07 802.043 461.5C802.191 461.93 802.398 462.301 802.664 462.613C802.938 462.926 803.266 463.168 803.648 463.34C804.039 463.512 804.48 463.598 804.973 463.598C805.582 463.598 806.148 463.48 806.672 463.246C807.203 463.004 807.66 462.641 808.043 462.156L809.684 463.938C809.418 464.32 809.055 464.688 808.594 465.039C808.141 465.391 807.594 465.68 806.953 465.906C806.312 466.125 805.582 466.234 804.762 466.234ZM818.73 463.141V457.492C818.73 457.086 818.664 456.738 818.531 456.449C818.398 456.152 818.191 455.922 817.91 455.758C817.637 455.594 817.281 455.512 816.844 455.512C816.469 455.512 816.145 455.578 815.871 455.711C815.598 455.836 815.387 456.02 815.238 456.262C815.09 456.496 815.016 456.773 815.016 457.094H811.641C811.641 456.555 811.766 456.043 812.016 455.559C812.266 455.074 812.629 454.648 813.105 454.281C813.582 453.906 814.148 453.613 814.805 453.402C815.469 453.191 816.211 453.086 817.031 453.086C818.016 453.086 818.891 453.25 819.656 453.578C820.422 453.906 821.023 454.398 821.461 455.055C821.906 455.711 822.129 456.531 822.129 457.516V462.941C822.129 463.637 822.172 464.207 822.258 464.652C822.344 465.09 822.469 465.473 822.633 465.801V466H819.223C819.059 465.656 818.934 465.227 818.848 464.711C818.77 464.188 818.73 463.664 818.73 463.141ZM819.176 458.277L819.199 460.188H817.312C816.867 460.188 816.48 460.238 816.152 460.34C815.824 460.441 815.555 460.586 815.344 460.773C815.133 460.953 814.977 461.164 814.875 461.406C814.781 461.648 814.734 461.914 814.734 462.203C814.734 462.492 814.801 462.754 814.934 462.988C815.066 463.215 815.258 463.395 815.508 463.527C815.758 463.652 816.051 463.715 816.387 463.715C816.895 463.715 817.336 463.613 817.711 463.41C818.086 463.207 818.375 462.957 818.578 462.66C818.789 462.363 818.898 462.082 818.906 461.816L819.797 463.246C819.672 463.566 819.5 463.898 819.281 464.242C819.07 464.586 818.801 464.91 818.473 465.215C818.145 465.512 817.75 465.758 817.289 465.953C816.828 466.141 816.281 466.234 815.648 466.234C814.844 466.234 814.113 466.074 813.457 465.754C812.809 465.426 812.293 464.977 811.91 464.406C811.535 463.828 811.348 463.172 811.348 462.438C811.348 461.773 811.473 461.184 811.723 460.668C811.973 460.152 812.34 459.719 812.824 459.367C813.316 459.008 813.93 458.738 814.664 458.559C815.398 458.371 816.25 458.277 817.219 458.277H819.176ZM830.941 453.32V455.711H823.559V453.32H830.941ZM825.387 450.191H828.762V462.18C828.762 462.547 828.809 462.828 828.902 463.023C829.004 463.219 829.152 463.355 829.348 463.434C829.543 463.504 829.789 463.539 830.086 463.539C830.297 463.539 830.484 463.531 830.648 463.516C830.82 463.492 830.965 463.469 831.082 463.445L831.094 465.93C830.805 466.023 830.492 466.098 830.156 466.152C829.82 466.207 829.449 466.234 829.043 466.234C828.301 466.234 827.652 466.113 827.098 465.871C826.551 465.621 826.129 465.223 825.832 464.676C825.535 464.129 825.387 463.41 825.387 462.52V450.191ZM836.426 453.32V466H833.039V453.32H836.426ZM832.828 450.016C832.828 449.523 833 449.117 833.344 448.797C833.688 448.477 834.148 448.316 834.727 448.316C835.297 448.316 835.754 448.477 836.098 448.797C836.449 449.117 836.625 449.523 836.625 450.016C836.625 450.508 836.449 450.914 836.098 451.234C835.754 451.555 835.297 451.715 834.727 451.715C834.148 451.715 833.688 451.555 833.344 451.234C833 450.914 832.828 450.508 832.828 450.016ZM843.527 463.539L846.34 453.32H849.867L845.59 466H843.457L843.527 463.539ZM841.594 453.32L844.418 463.551L844.477 466H842.332L838.055 453.32H841.594ZM854.941 453.32V466H851.555V453.32H854.941ZM851.344 450.016C851.344 449.523 851.516 449.117 851.859 448.797C852.203 448.477 852.664 448.316 853.242 448.316C853.812 448.316 854.27 448.477 854.613 448.797C854.965 449.117 855.141 449.523 855.141 450.016C855.141 450.508 854.965 450.914 854.613 451.234C854.27 451.555 853.812 451.715 853.242 451.715C852.664 451.715 852.203 451.555 851.859 451.234C851.516 450.914 851.344 450.508 851.344 450.016ZM863.941 453.32V455.711H856.559V453.32H863.941ZM858.387 450.191H861.762V462.18C861.762 462.547 861.809 462.828 861.902 463.023C862.004 463.219 862.152 463.355 862.348 463.434C862.543 463.504 862.789 463.539 863.086 463.539C863.297 463.539 863.484 463.531 863.648 463.516C863.82 463.492 863.965 463.469 864.082 463.445L864.094 465.93C863.805 466.023 863.492 466.098 863.156 466.152C862.82 466.207 862.449 466.234 862.043 466.234C861.301 466.234 860.652 466.113 860.098 465.871C859.551 465.621 859.129 465.223 858.832 464.676C858.535 464.129 858.387 463.41 858.387 462.52V450.191ZM869.625 464.57L872.988 453.32H876.609L871.512 467.91C871.402 468.23 871.254 468.574 871.066 468.941C870.887 469.309 870.641 469.656 870.328 469.984C870.023 470.32 869.637 470.594 869.168 470.805C868.707 471.016 868.141 471.121 867.469 471.121C867.148 471.121 866.887 471.102 866.684 471.062C866.48 471.023 866.238 470.969 865.957 470.898V468.426C866.043 468.426 866.133 468.426 866.227 468.426C866.32 468.434 866.41 468.438 866.496 468.438C866.941 468.438 867.305 468.387 867.586 468.285C867.867 468.184 868.094 468.027 868.266 467.816C868.438 467.613 868.574 467.348 868.676 467.02L869.625 464.57ZM868.219 453.32L870.973 462.508L871.453 466.082L869.156 466.328L864.598 453.32H868.219Z" fill="white"/>
<rect x="0.5" y="628.5" width="235" height="69" rx="34.5" fill="url(#paint1_linear_60_11)"/>
<rect x="0.5" y="628.5" width="235" height="69" rx="34.5" stroke="#FEFEFE"/>
<path d="M66.4609 653.938V671H62.957V653.938H66.4609ZM72.8477 661.027V671H69.4727V658.32H72.6367L72.8477 661.027ZM72.3555 664.215H71.4414C71.4414 663.277 71.5625 662.434 71.8047 661.684C72.0469 660.926 72.3867 660.281 72.8242 659.75C73.2617 659.211 73.7812 658.801 74.3828 658.52C74.9922 658.23 75.6719 658.086 76.4219 658.086C77.0156 658.086 77.5586 658.172 78.0508 658.344C78.543 658.516 78.9648 658.789 79.3164 659.164C79.6758 659.539 79.9492 660.035 80.1367 660.652C80.332 661.27 80.4297 662.023 80.4297 662.914V671H77.0312V662.902C77.0312 662.34 76.9531 661.902 76.7969 661.59C76.6406 661.277 76.4102 661.059 76.1055 660.934C75.8086 660.801 75.4414 660.734 75.0039 660.734C74.5508 660.734 74.1562 660.824 73.8203 661.004C73.4922 661.184 73.2188 661.434 73 661.754C72.7891 662.066 72.6289 662.434 72.5195 662.855C72.4102 663.277 72.3555 663.73 72.3555 664.215ZM86.3008 661.027V671H82.9258V658.32H86.0898L86.3008 661.027ZM85.8086 664.215H84.8945C84.8945 663.277 85.0156 662.434 85.2578 661.684C85.5 660.926 85.8398 660.281 86.2773 659.75C86.7148 659.211 87.2344 658.801 87.8359 658.52C88.4453 658.23 89.125 658.086 89.875 658.086C90.4688 658.086 91.0117 658.172 91.5039 658.344C91.9961 658.516 92.418 658.789 92.7695 659.164C93.1289 659.539 93.4023 660.035 93.5898 660.652C93.7852 661.27 93.8828 662.023 93.8828 662.914V671H90.4844V662.902C90.4844 662.34 90.4062 661.902 90.25 661.59C90.0938 661.277 89.8633 661.059 89.5586 660.934C89.2617 660.801 88.8945 660.734 88.457 660.734C88.0039 660.734 87.6094 660.824 87.2734 661.004C86.9453 661.184 86.6719 661.434 86.4531 661.754C86.2422 662.066 86.082 662.434 85.9727 662.855C85.8633 663.277 85.8086 663.73 85.8086 664.215ZM95.9102 664.789V664.543C95.9102 663.613 96.043 662.758 96.3086 661.977C96.5742 661.188 96.9609 660.504 97.4688 659.926C97.9766 659.348 98.6016 658.898 99.3438 658.578C100.086 658.25 100.938 658.086 101.898 658.086C102.859 658.086 103.715 658.25 104.465 658.578C105.215 658.898 105.844 659.348 106.352 659.926C106.867 660.504 107.258 661.188 107.523 661.977C107.789 662.758 107.922 663.613 107.922 664.543V664.789C107.922 665.711 107.789 666.566 107.523 667.355C107.258 668.137 106.867 668.82 106.352 669.406C105.844 669.984 105.219 670.434 104.477 670.754C103.734 671.074 102.883 671.234 101.922 671.234C100.961 671.234 100.105 671.074 99.3555 670.754C98.6133 670.434 97.9844 669.984 97.4688 669.406C96.9609 668.82 96.5742 668.137 96.3086 667.355C96.043 666.566 95.9102 665.711 95.9102 664.789ZM99.2852 664.543V664.789C99.2852 665.32 99.332 665.816 99.4258 666.277C99.5195 666.738 99.668 667.145 99.8711 667.496C100.082 667.84 100.355 668.109 100.691 668.305C101.027 668.5 101.438 668.598 101.922 668.598C102.391 668.598 102.793 668.5 103.129 668.305C103.465 668.109 103.734 667.84 103.938 667.496C104.141 667.145 104.289 666.738 104.383 666.277C104.484 665.816 104.535 665.32 104.535 664.789V664.543C104.535 664.027 104.484 663.543 104.383 663.09C104.289 662.629 104.137 662.223 103.926 661.871C103.723 661.512 103.453 661.23 103.117 661.027C102.781 660.824 102.375 660.723 101.898 660.723C101.422 660.723 101.016 660.824 100.68 661.027C100.352 661.23 100.082 661.512 99.8711 661.871C99.668 662.223 99.5195 662.629 99.4258 663.09C99.332 663.543 99.2852 664.027 99.2852 664.543ZM114.121 668.539L116.934 658.32H120.461L116.184 671H114.051L114.121 668.539ZM112.188 658.32L115.012 668.551L115.07 671H112.926L108.648 658.32H112.188ZM128.629 668.141V662.492C128.629 662.086 128.562 661.738 128.43 661.449C128.297 661.152 128.09 660.922 127.809 660.758C127.535 660.594 127.18 660.512 126.742 660.512C126.367 660.512 126.043 660.578 125.77 660.711C125.496 660.836 125.285 661.02 125.137 661.262C124.988 661.496 124.914 661.773 124.914 662.094H121.539C121.539 661.555 121.664 661.043 121.914 660.559C122.164 660.074 122.527 659.648 123.004 659.281C123.48 658.906 124.047 658.613 124.703 658.402C125.367 658.191 126.109 658.086 126.93 658.086C127.914 658.086 128.789 658.25 129.555 658.578C130.32 658.906 130.922 659.398 131.359 660.055C131.805 660.711 132.027 661.531 132.027 662.516V667.941C132.027 668.637 132.07 669.207 132.156 669.652C132.242 670.09 132.367 670.473 132.531 670.801V671H129.121C128.957 670.656 128.832 670.227 128.746 669.711C128.668 669.188 128.629 668.664 128.629 668.141ZM129.074 663.277L129.098 665.188H127.211C126.766 665.188 126.379 665.238 126.051 665.34C125.723 665.441 125.453 665.586 125.242 665.773C125.031 665.953 124.875 666.164 124.773 666.406C124.68 666.648 124.633 666.914 124.633 667.203C124.633 667.492 124.699 667.754 124.832 667.988C124.965 668.215 125.156 668.395 125.406 668.527C125.656 668.652 125.949 668.715 126.285 668.715C126.793 668.715 127.234 668.613 127.609 668.41C127.984 668.207 128.273 667.957 128.477 667.66C128.688 667.363 128.797 667.082 128.805 666.816L129.695 668.246C129.57 668.566 129.398 668.898 129.18 669.242C128.969 669.586 128.699 669.91 128.371 670.215C128.043 670.512 127.648 670.758 127.188 670.953C126.727 671.141 126.18 671.234 125.547 671.234C124.742 671.234 124.012 671.074 123.355 670.754C122.707 670.426 122.191 669.977 121.809 669.406C121.434 668.828 121.246 668.172 121.246 667.438C121.246 666.773 121.371 666.184 121.621 665.668C121.871 665.152 122.238 664.719 122.723 664.367C123.215 664.008 123.828 663.738 124.562 663.559C125.297 663.371 126.148 663.277 127.117 663.277H129.074ZM140.84 658.32V660.711H133.457V658.32H140.84ZM135.285 655.191H138.66V667.18C138.66 667.547 138.707 667.828 138.801 668.023C138.902 668.219 139.051 668.355 139.246 668.434C139.441 668.504 139.688 668.539 139.984 668.539C140.195 668.539 140.383 668.531 140.547 668.516C140.719 668.492 140.863 668.469 140.98 668.445L140.992 670.93C140.703 671.023 140.391 671.098 140.055 671.152C139.719 671.207 139.348 671.234 138.941 671.234C138.199 671.234 137.551 671.113 136.996 670.871C136.449 670.621 136.027 670.223 135.73 669.676C135.434 669.129 135.285 668.41 135.285 667.52V655.191ZM146.324 658.32V671H142.938V658.32H146.324ZM142.727 655.016C142.727 654.523 142.898 654.117 143.242 653.797C143.586 653.477 144.047 653.316 144.625 653.316C145.195 653.316 145.652 653.477 145.996 653.797C146.348 654.117 146.523 654.523 146.523 655.016C146.523 655.508 146.348 655.914 145.996 656.234C145.652 656.555 145.195 656.715 144.625 656.715C144.047 656.715 143.586 656.555 143.242 656.234C142.898 655.914 142.727 655.508 142.727 655.016ZM148.574 664.789V664.543C148.574 663.613 148.707 662.758 148.973 661.977C149.238 661.188 149.625 660.504 150.133 659.926C150.641 659.348 151.266 658.898 152.008 658.578C152.75 658.25 153.602 658.086 154.562 658.086C155.523 658.086 156.379 658.25 157.129 658.578C157.879 658.898 158.508 659.348 159.016 659.926C159.531 660.504 159.922 661.188 160.188 661.977C160.453 662.758 160.586 663.613 160.586 664.543V664.789C160.586 665.711 160.453 666.566 160.188 667.355C159.922 668.137 159.531 668.82 159.016 669.406C158.508 669.984 157.883 670.434 157.141 670.754C156.398 671.074 155.547 671.234 154.586 671.234C153.625 671.234 152.77 671.074 152.02 670.754C151.277 670.434 150.648 669.984 150.133 669.406C149.625 668.82 149.238 668.137 148.973 667.355C148.707 666.566 148.574 665.711 148.574 664.789ZM151.949 664.543V664.789C151.949 665.32 151.996 665.816 152.09 666.277C152.184 666.738 152.332 667.145 152.535 667.496C152.746 667.84 153.02 668.109 153.355 668.305C153.691 668.5 154.102 668.598 154.586 668.598C155.055 668.598 155.457 668.5 155.793 668.305C156.129 668.109 156.398 667.84 156.602 667.496C156.805 667.145 156.953 666.738 157.047 666.277C157.148 665.816 157.199 665.32 157.199 664.789V664.543C157.199 664.027 157.148 663.543 157.047 663.09C156.953 662.629 156.801 662.223 156.59 661.871C156.387 661.512 156.117 661.23 155.781 661.027C155.445 660.824 155.039 660.723 154.562 660.723C154.086 660.723 153.68 660.824 153.344 661.027C153.016 661.23 152.746 661.512 152.535 661.871C152.332 662.223 152.184 662.629 152.09 663.09C151.996 663.543 151.949 664.027 151.949 664.543ZM165.965 661.027V671H162.59V658.32H165.754L165.965 661.027ZM165.473 664.215H164.559C164.559 663.277 164.68 662.434 164.922 661.684C165.164 660.926 165.504 660.281 165.941 659.75C166.379 659.211 166.898 658.801 167.5 658.52C168.109 658.23 168.789 658.086 169.539 658.086C170.133 658.086 170.676 658.172 171.168 658.344C171.66 658.516 172.082 658.789 172.434 659.164C172.793 659.539 173.066 660.035 173.254 660.652C173.449 661.27 173.547 662.023 173.547 662.914V671H170.148V662.902C170.148 662.34 170.07 661.902 169.914 661.59C169.758 661.277 169.527 661.059 169.223 660.934C168.926 660.801 168.559 660.734 168.121 660.734C167.668 660.734 167.273 660.824 166.938 661.004C166.609 661.184 166.336 661.434 166.117 661.754C165.906 662.066 165.746 662.434 165.637 662.855C165.527 663.277 165.473 663.73 165.473 664.215Z" fill="white"/>
<path d="M695 557.5C695 604.72 592.025 643 465 643C337.975 643 235 604.72 235 557.5C235 510.28 337.975 472 465 472C592.025 472 695 510.28 695 557.5ZM253.683 557.5C253.683 600.885 348.293 636.055 465 636.055C581.707 636.055 676.317 600.885 676.317 557.5C676.317 514.115 581.707 478.945 465 478.945C348.293 478.945 253.683 514.115 253.683 557.5Z" fill="#D9D9D9"/>
<g filter="url(#filter0_d_60_11)">
<path d="M352 504.25L473 202L594 504.25L473 605L352 504.25Z" fill="url(#paint2_linear_60_11)"/>
<path d="M473 202L352 504.25M473 202L594 504.25M473 202V551.008M352 504.25L473 605M352 504.25L473 551.008M473 605L594 504.25M473 605V551.008M594 504.25L473 551.008" stroke="#FEFEFE"/>
</g>
<rect x="49.5" y="347.5" width="177" height="69" rx="34.5" fill="url(#paint3_linear_60_11)"/>
<rect x="49.5" y="347.5" width="177" height="69" rx="34.5" stroke="#FEFEFE"/>
<path d="M121.547 384.34H125.051C124.98 385.488 124.664 386.508 124.102 387.398C123.547 388.289 122.77 388.984 121.77 389.484C120.777 389.984 119.582 390.234 118.184 390.234C117.09 390.234 116.109 390.047 115.242 389.672C114.375 389.289 113.633 388.742 113.016 388.031C112.406 387.32 111.941 386.461 111.621 385.453C111.301 384.445 111.141 383.316 111.141 382.066V380.883C111.141 379.633 111.305 378.504 111.633 377.496C111.969 376.48 112.445 375.617 113.062 374.906C113.688 374.195 114.434 373.648 115.301 373.266C116.168 372.883 117.137 372.691 118.207 372.691C119.629 372.691 120.828 372.949 121.805 373.465C122.789 373.98 123.551 374.691 124.09 375.598C124.637 376.504 124.965 377.535 125.074 378.691H121.559C121.52 378.004 121.383 377.422 121.148 376.945C120.914 376.461 120.559 376.098 120.082 375.855C119.613 375.605 118.988 375.48 118.207 375.48C117.621 375.48 117.109 375.59 116.672 375.809C116.234 376.027 115.867 376.359 115.57 376.805C115.273 377.25 115.051 377.812 114.902 378.492C114.762 379.164 114.691 379.953 114.691 380.859V382.066C114.691 382.949 114.758 383.727 114.891 384.398C115.023 385.062 115.227 385.625 115.5 386.086C115.781 386.539 116.141 386.883 116.578 387.117C117.023 387.344 117.559 387.457 118.184 387.457C118.918 387.457 119.523 387.34 120 387.105C120.477 386.871 120.84 386.523 121.09 386.062C121.348 385.602 121.5 385.027 121.547 384.34ZM126.609 383.789V383.543C126.609 382.613 126.742 381.758 127.008 380.977C127.273 380.188 127.66 379.504 128.168 378.926C128.676 378.348 129.301 377.898 130.043 377.578C130.785 377.25 131.637 377.086 132.598 377.086C133.559 377.086 134.414 377.25 135.164 377.578C135.914 377.898 136.543 378.348 137.051 378.926C137.566 379.504 137.957 380.188 138.223 380.977C138.488 381.758 138.621 382.613 138.621 383.543V383.789C138.621 384.711 138.488 385.566 138.223 386.355C137.957 387.137 137.566 387.82 137.051 388.406C136.543 388.984 135.918 389.434 135.176 389.754C134.434 390.074 133.582 390.234 132.621 390.234C131.66 390.234 130.805 390.074 130.055 389.754C129.312 389.434 128.684 388.984 128.168 388.406C127.66 387.82 127.273 387.137 127.008 386.355C126.742 385.566 126.609 384.711 126.609 383.789ZM129.984 383.543V383.789C129.984 384.32 130.031 384.816 130.125 385.277C130.219 385.738 130.367 386.145 130.57 386.496C130.781 386.84 131.055 387.109 131.391 387.305C131.727 387.5 132.137 387.598 132.621 387.598C133.09 387.598 133.492 387.5 133.828 387.305C134.164 387.109 134.434 386.84 134.637 386.496C134.84 386.145 134.988 385.738 135.082 385.277C135.184 384.816 135.234 384.32 135.234 383.789V383.543C135.234 383.027 135.184 382.543 135.082 382.09C134.988 381.629 134.836 381.223 134.625 380.871C134.422 380.512 134.152 380.23 133.816 380.027C133.48 379.824 133.074 379.723 132.598 379.723C132.121 379.723 131.715 379.824 131.379 380.027C131.051 380.23 130.781 380.512 130.57 380.871C130.367 381.223 130.219 381.629 130.125 382.09C130.031 382.543 129.984 383.027 129.984 383.543ZM148.184 387.234V372H151.582V390H148.523L148.184 387.234ZM140.168 383.812V383.566C140.168 382.598 140.277 381.719 140.496 380.93C140.715 380.133 141.035 379.449 141.457 378.879C141.879 378.309 142.398 377.867 143.016 377.555C143.633 377.242 144.336 377.086 145.125 377.086C145.867 377.086 146.516 377.242 147.07 377.555C147.633 377.867 148.109 378.312 148.5 378.891C148.898 379.461 149.219 380.137 149.461 380.918C149.703 381.691 149.879 382.539 149.988 383.461V384C149.879 384.883 149.703 385.703 149.461 386.461C149.219 387.219 148.898 387.883 148.5 388.453C148.109 389.016 147.633 389.453 147.07 389.766C146.508 390.078 145.852 390.234 145.102 390.234C144.312 390.234 143.609 390.074 142.992 389.754C142.383 389.434 141.867 388.984 141.445 388.406C141.031 387.828 140.715 387.148 140.496 386.367C140.277 385.586 140.168 384.734 140.168 383.812ZM143.543 383.566V383.812C143.543 384.336 143.582 384.824 143.66 385.277C143.746 385.73 143.883 386.133 144.07 386.484C144.266 386.828 144.516 387.098 144.82 387.293C145.133 387.48 145.512 387.574 145.957 387.574C146.535 387.574 147.012 387.445 147.387 387.188C147.762 386.922 148.047 386.559 148.242 386.098C148.445 385.637 148.562 385.105 148.594 384.504V382.969C148.57 382.477 148.5 382.035 148.383 381.645C148.273 381.246 148.109 380.906 147.891 380.625C147.68 380.344 147.414 380.125 147.094 379.969C146.781 379.812 146.41 379.734 145.98 379.734C145.543 379.734 145.168 379.836 144.855 380.039C144.543 380.234 144.289 380.504 144.094 380.848C143.906 381.191 143.766 381.598 143.672 382.066C143.586 382.527 143.543 383.027 143.543 383.566ZM160.055 390.234C159.07 390.234 158.188 390.078 157.406 389.766C156.625 389.445 155.961 389.004 155.414 388.441C154.875 387.879 154.461 387.227 154.172 386.484C153.883 385.734 153.738 384.938 153.738 384.094V383.625C153.738 382.664 153.875 381.785 154.148 380.988C154.422 380.191 154.812 379.5 155.32 378.914C155.836 378.328 156.461 377.879 157.195 377.566C157.93 377.246 158.758 377.086 159.68 377.086C160.578 377.086 161.375 377.234 162.07 377.531C162.766 377.828 163.348 378.25 163.816 378.797C164.293 379.344 164.652 380 164.895 380.766C165.137 381.523 165.258 382.367 165.258 383.297V384.703H155.18V382.453H161.941V382.195C161.941 381.727 161.855 381.309 161.684 380.941C161.52 380.566 161.27 380.27 160.934 380.051C160.598 379.832 160.168 379.723 159.645 379.723C159.199 379.723 158.816 379.82 158.496 380.016C158.176 380.211 157.914 380.484 157.711 380.836C157.516 381.188 157.367 381.602 157.266 382.078C157.172 382.547 157.125 383.062 157.125 383.625V384.094C157.125 384.602 157.195 385.07 157.336 385.5C157.484 385.93 157.691 386.301 157.957 386.613C158.23 386.926 158.559 387.168 158.941 387.34C159.332 387.512 159.773 387.598 160.266 387.598C160.875 387.598 161.441 387.48 161.965 387.246C162.496 387.004 162.953 386.641 163.336 386.156L164.977 387.938C164.711 388.32 164.348 388.688 163.887 389.039C163.434 389.391 162.887 389.68 162.246 389.906C161.605 390.125 160.875 390.234 160.055 390.234Z" fill="white"/>
<defs>
<filter id="filter0_d_60_11" x="151.401" y="0.654785" width="643.199" height="804.996" filterUnits="userSpaceOnUse" color-interpolation-filters="sRGB">
<feFlood flood-opacity="0" result="BackgroundImageFix"/>
<feColorMatrix in="SourceAlpha" type="matrix" values="0 0 0 0 0 0 0 0 0 0 0 0 0 0 0 0 0 0 127 0" result="hardAlpha"/>
<feOffset/>
<feGaussianBlur stdDeviation="100"/>
<feComposite in2="hardAlpha" operator="out"/>
<feColorMatrix type="matrix" values="0 0 0 0 1 0 0 0 0 1 0 0 0 0 1 0 0 0 1 0"/>
<feBlend mode="normal" in2="BackgroundImageFix" result="effect1_dropShadow_60_11"/>
<feBlend mode="normal" in="SourceGraphic" in2="effect1_dropShadow_60_11" result="shape"/>
</filter>
<linearGradient id="paint0_linear_60_11" x1="713" y1="458" x2="937" y2="458" gradientUnits="userSpaceOnUse">
<stop stop-color="#D1BC40"/>
<stop offset="0.5" stop-color="#20143D"/>
<stop offset="1" stop-color="#151515"/>
</linearGradient>
<linearGradient id="paint1_linear_60_11" x1="1" y1="663" x2="235" y2="663" gradientUnits="userSpaceOnUse">
<stop stop-color="#151515"/>
<stop offset="0.5" stop-color="#20143D"/>
<stop offset="1" stop-color="#D1BC40"/>
</linearGradient>
<linearGradient id="paint2_linear_60_11" x1="473" y1="202" x2="473" y2="605" gradientUnits="userSpaceOnUse">
<stop stop-color="#FEFEFE"/>
<stop offset="0.35" stop-color="#D1BC40"/>
<stop offset="0.8" stop-color="#20143D"/>
<stop offset="1" stop-color="#151515"/>
</linearGradient>
<linearGradient id="paint3_linear_60_11" x1="50" y1="382" x2="226" y2="382" gradientUnits="userSpaceOnUse">
<stop stop-color="#151515"/>
<stop offset="0.5" stop-color="#20143D"/>
<stop offset="1" stop-color="#D1BC40"/>
</linearGradient>
</defs>
</svg>
